<?xml version="1.0" encoding="UTF-8"?>
<svg xmlns="http://www.w3.org/2000/svg" xmlns:xlink="http://www.w3.org/1999/xlink" width="554.8pt" height="207.9pt" viewBox="0 0 554.8 207.9" version="1.1">
<defs>
<clipPath id="clip1">
  <path d="M 0 0 L 554.800781 0 L 554.800781 207.898438 L 0 207.898438 Z M 0 0 "/>
</clipPath>
</defs>
<g id="surface1">
<g clip-path="url(#clip1)" clip-rule="nonzero">
<path style=" stroke:none;fill-rule:evenodd;fill:rgb(0%,37.255859%,63.084412%);fill-opacity:1;" d="M 0.046875 207.898438 L 554.828125 207.898438 L 554.828125 -0.0703125 L 0.046875 -0.0703125 Z M 0.046875 207.898438 "/>
</g>
<path style=" stroke:none;fill-rule:evenodd;fill:rgb(100%,100%,100%);fill-opacity:1;" d="M 64.699219 151.019531 L 19.839844 151.019531 L 19.839844 155.789063 L 109.546875 155.789063 L 109.546875 151.019531 Z M 64.699219 151.019531 "/>
<path style=" stroke:none;fill-rule:evenodd;fill:rgb(100%,100%,100%);fill-opacity:1;" d="M 78.828125 66.214844 C 78.828125 74.035156 72.488281 80.382813 64.660156 80.382813 C 56.832031 80.382813 50.496094 74.035156 50.496094 66.214844 C 50.496094 58.382813 56.832031 52.042969 64.660156 52.042969 C 72.488281 52.042969 78.828125 58.382813 78.828125 66.214844 Z M 78.828125 66.214844 "/>
<path style=" stroke:none;fill-rule:evenodd;fill:rgb(100%,100%,100%);fill-opacity:1;" d="M 31.609375 113.246094 L 31.609375 108.5 C 31.609375 100.679688 37.957031 94.332031 45.773438 94.332031 L 83.550781 94.332031 C 91.371094 94.332031 97.714844 100.679688 97.714844 108.5 L 97.714844 113.246094 Z M 95.355469 82.46875 L 33.972656 82.46875 C 23.542969 82.46875 15.085938 90.917969 15.085938 101.351563 L 15.085938 129.683594 C 15.085938 140.125 23.542969 148.582031 33.972656 148.582031 L 35.179688 148.582031 C 32.964844 146.082031 31.609375 142.804688 31.609375 139.191406 L 31.609375 127.417969 L 97.714844 127.417969 L 97.714844 139.191406 C 97.714844 142.804688 96.359375 146.082031 94.144531 148.582031 L 95.355469 148.582031 C 105.785156 148.582031 114.238281 140.125 114.238281 129.683594 L 114.238281 101.351563 C 114.238281 90.917969 105.785156 82.46875 95.355469 82.46875 Z M 95.355469 82.46875 "/>
<path style=" stroke:none;fill-rule:evenodd;fill:rgb(100%,100%,100%);fill-opacity:1;" d="M 371.816406 141.613281 L 383.636719 141.613281 L 383.636719 89.625 L 371.816406 89.625 Z M 371.816406 141.613281 "/>
<path style=" stroke:none;fill-rule:evenodd;fill:rgb(100%,100%,100%);fill-opacity:1;" d="M 344.835938 113.316406 L 334.117188 113.316406 L 334.117188 99.195313 L 346.871094 99.195313 C 350.945313 99.195313 352.070313 99.660156 353.6875 100.808594 C 355.238281 101.921875 356.445313 103.996094 356.460938 106.183594 C 356.46875 107.964844 355.664063 110.0625 353.6875 111.5625 C 352.03125 112.820313 350.164063 113.316406 346.875 113.316406 Z M 366.902344 98.273438 C 365.730469 95.917969 363.886719 93.71875 361.546875 92.046875 C 359.058594 90.273438 355.8125 89.625 354.789063 89.625 L 322.285156 89.625 L 322.285156 141.605469 L 334.117188 141.605469 L 334.117188 122.785156 L 352.664063 122.785156 C 353.519531 122.785156 355.03125 122.785156 355.855469 122.609375 C 356.671875 122.453125 357.117188 122.382813 358.476563 121.925781 C 360.105469 121.363281 361.75 120.277344 362.929688 119.265625 C 364.605469 117.832031 366.183594 115.800781 367.179688 113.441406 C 368.199219 111.042969 368.691406 108.988281 368.691406 106.320313 C 368.691406 103.304688 368.113281 100.898438 366.902344 98.273438 Z M 366.902344 98.273438 "/>
<path style=" stroke:none;fill-rule:evenodd;fill:rgb(100%,100%,100%);fill-opacity:1;" d="M 272.3125 120.195313 L 279.976563 100.128906 L 280.085938 100.40625 L 287.859375 120.195313 Z M 286.121094 89.625 L 274.574219 89.625 L 252.726563 141.605469 L 264.300781 141.605469 L 268.773438 129.613281 L 291.394531 129.613281 L 296.167969 141.605469 L 308.308594 141.605469 Z M 286.121094 89.625 "/>
<path style=" stroke:none;fill-rule:evenodd;fill:rgb(100%,100%,100%);fill-opacity:1;" d="M 190.511719 120.203125 L 198.175781 100.128906 L 198.28125 100.414063 L 206.046875 120.203125 Z M 244.660156 89.625 L 244.660156 117.414063 C 244.660156 121.011719 244.78125 123.046875 244.253906 125.558594 C 244.117188 126.222656 243.683594 127.039063 243.300781 127.679688 C 242.578125 128.882813 241.597656 129.78125 240.972656 130.261719 C 240.476563 130.660156 239.410156 131.308594 238.53125 131.601563 C 237.402344 131.988281 237.070313 132.21875 232.816406 132.21875 L 222.488281 132.21875 L 204.320313 89.632813 L 192.773438 89.632813 L 174.890625 132.1875 L 153.378906 132.1875 C 151.148438 132.1875 149.273438 132.128906 147.925781 131.738281 C 146.574219 131.34375 145.203125 130.636719 143.992188 129.378906 C 142.886719 128.21875 142.238281 126.96875 141.878906 125.679688 C 141.332031 123.671875 140.992188 121.652344 140.839844 120.417969 C 140.671875 119 140.546875 117.230469 140.546875 116.382813 C 140.546875 115.527344 140.570313 113.367188 140.730469 111.800781 C 140.894531 110.167969 141.097656 108.882813 141.539063 106.914063 C 141.984375 104.964844 142.488281 103.03125 144.769531 101.144531 C 146.675781 99.574219 148.667969 99.042969 152.371094 99.042969 L 171.085938 99.042969 L 171.085938 89.625 L 153.207031 89.632813 C 152.214844 89.632813 150.976563 89.625 149.738281 89.632813 C 148.585938 89.632813 147.441406 89.648438 146.71875 89.730469 C 144.839844 89.960938 143.9375 90.152344 141.820313 90.910156 C 139.464844 91.757813 136.96875 93.445313 135.460938 94.941406 C 133.953125 96.46875 133.199219 97.472656 132.421875 98.675781 C 131.632813 99.90625 131.03125 101.191406 130.4375 102.792969 C 129.855469 104.40625 129.472656 105.679688 129.089844 107.476563 C 128.699219 109.285156 128.269531 111.539063 128.269531 113.445313 L 128.207031 116.964844 C 128.339844 121.210938 129.082031 124.59375 130.320313 128.144531 C 131.492188 131.507813 133.550781 134.832031 136.578125 137.289063 C 138.960938 139.214844 141.550781 140.421875 144 141.027344 C 146.453125 141.644531 147.605469 141.613281 152.964844 141.613281 L 182.484375 141.613281 L 186.96875 129.613281 L 209.59375 129.613281 L 214.359375 141.613281 L 234.195313 141.613281 C 234.53125 141.613281 236.007813 141.621094 237.691406 141.613281 C 239.351563 141.605469 240.445313 141.613281 241.476563 141.484375 C 242.402344 141.363281 243.390625 141.140625 244.300781 140.875 C 245.21875 140.609375 246.1875 140.230469 247.488281 139.503906 C 249.238281 138.535156 250.261719 137.738281 251.496094 136.511719 C 252.628906 135.367188 253.664063 133.957031 254.230469 132.875 C 254.777344 131.785156 255.46875 130.507813 255.925781 128.550781 C 256.378906 126.597656 256.453125 123.855469 256.453125 120.59375 L 256.453125 89.625 Z M 244.660156 89.625 "/>
<path style=" stroke:none;fill-rule:evenodd;fill:rgb(100%,100%,100%);fill-opacity:1;" d="M 435.640625 118.59375 L 435.640625 89.621094 L 423.851563 89.621094 L 423.851563 122.199219 C 423.851563 128.179688 420.847656 132.273438 412.082031 132.273438 C 403.3125 132.273438 400.3125 128.179688 400.3125 122.199219 L 400.3125 89.621094 L 388.523438 89.621094 L 388.523438 123.097656 C 388.523438 132.746094 392.378906 142.058594 412.082031 142.058594 C 431.796875 142.058594 435.640625 132.746094 435.640625 123.097656 Z M 435.640625 118.59375 "/>
<path style=" stroke:none;fill-rule:evenodd;fill:rgb(100%,100%,100%);fill-opacity:1;" d="M 503.804688 120.1875 L 511.46875 100.132813 L 511.574219 100.40625 L 519.347656 120.1875 Z M 471.933594 111.5625 C 470.277344 112.816406 468.410156 113.3125 465.117188 113.3125 L 452.351563 113.3125 L 452.351563 99.195313 L 465.117188 99.195313 C 469.191406 99.195313 470.316406 99.660156 471.933594 100.808594 C 473.488281 101.921875 474.691406 103.996094 474.703125 106.183594 C 474.714844 107.964844 473.910156 110.058594 471.933594 111.5625 Z M 517.613281 89.625 L 506.066406 89.625 L 485.761719 137.957031 L 476.402344 122.035156 C 476.496094 122 476.609375 121.964844 476.726563 121.925781 C 478.355469 121.363281 479.992188 120.277344 481.179688 119.265625 C 482.855469 117.832031 484.425781 115.796875 485.429688 113.441406 C 486.453125 111.042969 486.9375 108.988281 486.9375 106.320313 C 486.9375 103.304688 486.359375 100.902344 485.144531 98.273438 C 483.976563 95.917969 482.125 93.71875 479.796875 92.046875 C 477.292969 90.273438 474.054688 89.625 473.035156 89.625 L 440.527344 89.625 L 440.527344 141.605469 L 452.351563 141.605469 L 452.351563 122.785156 L 465.03125 122.785156 L 475.679688 141.613281 L 487.902344 141.613281 L 487.902344 141.605469 L 495.789063 141.605469 L 500.261719 129.613281 L 522.890625 129.613281 L 527.652344 141.605469 L 539.789063 141.605469 Z M 517.613281 89.625 "/>
</g>
</svg>
